G04 #@! TF.GenerationSoftware,KiCad,Pcbnew,(6.0.0-0)*
G04 #@! TF.CreationDate,2022-04-08T10:01:26+09:00*
G04 #@! TF.ProjectId,32u2_module,33327532-5f6d-46f6-9475-6c652e6b6963,rev?*
G04 #@! TF.SameCoordinates,Original*
G04 #@! TF.FileFunction,Paste,Top*
G04 #@! TF.FilePolarity,Positive*
%FSLAX46Y46*%
G04 Gerber Fmt 4.6, Leading zero omitted, Abs format (unit mm)*
G04 Created by KiCad (PCBNEW (6.0.0-0)) date 2022-04-08 10:01:26*
%MOMM*%
%LPD*%
G01*
G04 APERTURE LIST*
%ADD10R,0.400000X1.800000*%
%ADD11R,1.600000X1.600000*%
%ADD12R,0.800000X2.000000*%
%ADD13R,0.980000X0.980000*%
%ADD14R,0.750000X0.250000*%
%ADD15R,0.250000X0.750000*%
%ADD16R,0.400000X1.900000*%
%ADD17R,1.250000X1.750000*%
%ADD18R,0.640000X0.590000*%
%ADD19R,0.590000X0.640000*%
G04 APERTURE END LIST*
D10*
X98700000Y-88055000D03*
X99350000Y-88055000D03*
X100000000Y-88055000D03*
X100650000Y-88055000D03*
X101300000Y-88055000D03*
D11*
X95700000Y-85255000D03*
X104300000Y-85255000D03*
D12*
X102100000Y-107000000D03*
X97900000Y-107000000D03*
D13*
X101220000Y-98780000D03*
X98780000Y-98780000D03*
X101220000Y-100000000D03*
X98780000Y-101220000D03*
X100000000Y-100000000D03*
X100000000Y-98780000D03*
X101220000Y-101220000D03*
X98780000Y-100000000D03*
X100000000Y-101220000D03*
D14*
X97525000Y-98250000D03*
X97525000Y-98750000D03*
X97525000Y-99250000D03*
X97525000Y-99750000D03*
X97525000Y-100250000D03*
X97525000Y-100750000D03*
X97525000Y-101250000D03*
X97525000Y-101750000D03*
D15*
X98250000Y-102475000D03*
X98750000Y-102475000D03*
X99250000Y-102475000D03*
X99750000Y-102475000D03*
X100250000Y-102475000D03*
X100750000Y-102475000D03*
X101250000Y-102475000D03*
X101750000Y-102475000D03*
D14*
X102475000Y-101750000D03*
X102475000Y-101250000D03*
X102475000Y-100750000D03*
X102475000Y-100250000D03*
X102475000Y-99750000D03*
X102475000Y-99250000D03*
X102475000Y-98750000D03*
X102475000Y-98250000D03*
D15*
X101750000Y-97525000D03*
X101250000Y-97525000D03*
X100750000Y-97525000D03*
X100250000Y-97525000D03*
X99750000Y-97525000D03*
X99250000Y-97525000D03*
X98750000Y-97525000D03*
X98250000Y-97525000D03*
D16*
X96700000Y-94500000D03*
X95500000Y-94500000D03*
X94300000Y-94500000D03*
D17*
X96900000Y-91400000D03*
X94100000Y-91400000D03*
D18*
X99000000Y-94015000D03*
X99000000Y-94985000D03*
D19*
X101015000Y-92500000D03*
X101985000Y-92500000D03*
X101015000Y-94000000D03*
X101985000Y-94000000D03*
X101415000Y-104700000D03*
X102385000Y-104700000D03*
X97515000Y-104700000D03*
X98485000Y-104700000D03*
D18*
X105500000Y-92485000D03*
X105500000Y-91515000D03*
X104000000Y-92485000D03*
X104000000Y-91515000D03*
M02*
